<svg width="50" height="50" viewBox="0 0 50 50" fill="none" xmlns="http://www.w3.org/2000/svg">
<g clip-path="url(#clip0_96_478)">
<path d="M25 37.5L27.6042 32.5V19.645C32.086 18.5275 35.4167 14.645 35.4167 10C35.4167 4.485 30.7448 0 25 0C19.2552 0 14.5834 4.485 14.5834 10C14.5834 14.645 17.9141 18.5275 22.3959 19.645V32.5L25 37.5ZM19.7917 10C19.7917 7.2425 22.1276 5 25 5C27.8724 5 30.2084 7.2425 30.2084 10C30.2084 12.7575 27.8724 15 25 15C22.1276 15 19.7917 12.7575 19.7917 10Z" fill="#DFDFDF"/>
<path d="M35.6675 20.8358L34.335 25.7522C40.8125 27.5779 45 31.0893 45 34.7C45 39.5246 36.7875 44.9 25 44.9C13.2125 44.9 5 39.5246 5 34.7C5 31.0893 9.1875 27.5779 15.6675 25.7496L14.335 20.8333C5.4925 23.3271 0 28.6387 0 34.7C0 43.2782 10.9825 49.9999 25 49.9999C39.0175 49.9999 50 43.2782 50 34.7C50 28.6387 44.5075 23.3271 35.6675 20.8358Z" fill="#DFDFDF"/>
</g>
<defs>
<clipPath id="clip0_96_478">
<rect width="50" height="50" fill="white"/>
</clipPath>
</defs>
</svg>
