<svg width="100" height="100" viewBox="0 0 100 100" fill="none" xmlns="http://www.w3.org/2000/svg">
<path d="M24.1216 5.00059C22.4324 5.0239 18.361 5.70485 13.7295 6.46146L15.3284 11.1298C24.567 9.88508 24.5123 9.63479 25.1877 10.5847C31.9456 20.0877 37.7201 29.2665 40.8894 39.201C47.7447 39.7117 55.9302 41.1381 61.5605 44.2561C68.7269 36.5543 80.4155 32.4275 90.0507 29.06C92.6069 28.1665 95.359 30.6284 98.9806 31.1938L100 27.5349C98.9756 26.0906 94.1532 24.0195 92.1491 23.9918C91.3007 23.9799 88.8909 24.6594 88.1606 24.9118C76.1798 27.2435 66.4262 27.7055 54.056 31.8156C46.2282 23.7803 38.0327 15.8327 28.6282 7.69663C26.6858 6.01597 26.5906 4.96668 24.1216 5.00059ZM41.7565 43.068C38.627 48.6165 36.6404 49.9559 32.3539 52.8531C28.5877 51.8612 24.8298 50.8503 20.4197 51.3725C16.0006 50.778 14.1988 52.4269 8.8371 54.3184C7.21239 53.7674 5.27081 54.5297 4.02247 55.0661C1.97092 56.1207 -0.464997 57.6691 0.0766439 60.2772C0.906978 62.9713 4.32882 62.163 5.89151 61.4859C7.20461 60.8543 8.42625 59.6257 9.3308 58.6586C13.8263 58.7792 15.8225 58.6315 20.4723 56.5579C23.9928 57.9993 28.4449 58.5724 32.4353 58.6714C32.6814 58.4867 32.9344 58.3117 33.1937 58.1466C35.5016 56.6842 38.3004 56.1254 40.8291 57.1357C43.3575 58.1462 44.9805 60.4722 45.6174 63.1114C45.9936 64.6696 46.055 66.3659 45.7974 68.1002C46.7961 70.9249 47.5552 73.5196 49.3521 76.9829C48.2602 81.8108 48.6069 86.58 48.8765 91.467L44.0865 93.2791L43.1739 95.625H57.9372L56.2263 93.1023L52.7845 91.3524C53.5212 86.4763 54.8089 81.6563 54.0978 76.6342C54.2134 72.8821 52.9857 69.1302 52.2584 65.3781C56.7379 59.8171 54.4397 55.8958 57.5781 49.8459C58.0317 48.9732 58.5384 48.1297 59.0954 47.32C53.3419 44.9167 47.6391 43.3274 41.7565 43.068ZM37.9402 60.4133C37.0878 60.4387 36.1652 60.7439 35.2085 61.35C33.6782 62.3198 32.1842 64.0639 31.2639 66.3227C30.3438 68.5815 30.1972 70.8645 30.6197 72.6144C31.0421 74.3646 31.9422 75.4995 33.1506 75.9823C34.359 76.4651 35.8025 76.2669 37.3328 75.2973C38.8635 74.3275 40.3576 72.5831 41.278 70.3242C42.1981 68.0654 42.3442 65.7829 41.9218 64.0327C41.4994 62.2825 40.5994 61.1474 39.3913 60.6646C38.9381 60.4834 38.4518 60.398 37.9404 60.4133H37.9402Z" fill="#DFDFDF"/>
</svg>
