<svg width="100" height="100" viewBox="0 0 100 100" fill="none" xmlns="http://www.w3.org/2000/svg">
<path d="M96.6876 70.4078C96.5736 69.1594 96.4642 67.9828 96.5439 67.0937C97.2486 59.2391 94.9595 52.1578 89.9251 46.6203C84.2142 40.3375 75.2111 36.5859 65.8439 36.5859C52.8001 36.5859 41.8673 43.4203 36.597 54.8688C36.5845 54.8984 36.5689 54.9281 36.5579 54.9578C35.347 50.5 34.1251 47.4062 33.147 44.9266C31.4939 40.7328 30.6064 38.4844 31.3173 33.5531C32.6075 33.4128 33.8175 32.858 34.7657 31.9719C34.9298 31.9828 35.1001 31.9906 35.272 31.9906C37.0454 31.9906 38.5829 31.3188 39.6939 30.1219L39.8314 30.1234C42.0392 30.1234 43.9189 29.1688 45.1704 27.4844C48.2236 27.2281 50.3329 25.3875 50.7501 22.5516C51.3126 18.7453 49.9814 8.09219 47.1048 4.73906C45.9642 3.40625 44.7048 3.125 43.8517 3.125C38.9845 3.125 31.372 4.24844 24.9095 5.91875C13.1314 8.9625 11.2907 12.0359 10.9986 14.375C9.80324 24.0266 8.03136 32.6359 6.46574 40.2328C4.24699 50.9953 2.49543 59.4969 3.3423 66.1812C3.67199 68.7891 4.3298 71.0266 4.96418 73.1875C5.75793 75.8844 6.57512 78.6734 6.85168 82.4875C7.23137 87.7891 12.9564 90.8297 22.5595 90.8297C26.3236 90.8297 30.1626 90.3391 33.3126 89.4656C37.1751 91.3156 49.9204 96.875 63.5329 96.875C68.2142 96.875 72.5751 96.2063 76.5001 94.8875C96.5829 88.1281 97.4845 79.0875 96.6876 70.4078ZM6.44387 65.7859C5.09074 55.1094 11.2361 37.8984 14.1017 14.7641C14.5876 10.85 32.4032 6.75312 42.2032 6.31094C41.8048 6.63125 41.5189 7.05156 41.4814 7.49844C42.6564 6.96562 44.4111 6.79375 45.272 8.55C45.3173 8.25625 45.3361 7.99531 45.3361 7.75156C45.7861 8.63281 46.197 9.83437 46.5439 11.2031C46.9798 13.1719 47.2236 15.1906 47.2282 17.2172C47.2314 18.625 47.5376 23.6437 45.2204 22.9906C43.7923 22.5875 43.7564 21.2703 43.3486 19.9141C42.7204 17.7937 41.6142 15.35 41.7486 13.0969C41.2032 15.3078 41.8517 17.9609 42.0923 20.1969C42.2298 21.4984 43.1298 25.0156 41.5361 25.4953C40.6548 25.7656 39.6329 25.1453 38.9032 24.6906C38.6251 24.5156 38.4173 23.2359 38.3157 22.8766C37.6876 20.6797 36.5626 18.1531 36.7064 15.8453C36.1564 17.9266 36.6923 20.4344 36.8673 22.5672C36.9751 23.8891 37.6423 26.7547 36.1517 27.4203C34.4642 28.3031 34.2048 26.1625 33.8923 25.0406C33.3126 22.9578 32.3704 20.6797 32.3954 18.4953C31.8064 21.1562 32.4986 24.2719 32.6126 26.9969C32.6736 28.35 29.8376 29.5719 28.7798 28.7219C27.122 27.3891 26.8423 24.2688 26.6548 22.2516C27.1517 22.9297 27.8642 23.8062 28.7689 23.7172C28.0001 22.8406 27.6736 21.3375 27.1595 20.2719C26.6876 19.3969 25.7298 17.3141 24.6032 17.2797C24.7767 17.6531 25.7267 20.2266 25.5798 20.4984C25.122 21.35 24.6767 22.2156 24.1673 23.0312C23.7345 23.7172 22.4782 25.9031 21.4642 25.2422C20.3689 24.5328 19.6814 21.3563 19.6814 21.3563C19.6814 21.3563 19.722 25.3172 21.1376 26.2344C22.4782 27.1063 24.0064 25.7313 24.8939 24.75C25.0704 26.6328 25.5798 28.8406 26.7189 30.2969C23.372 45.1391 29.5329 44.9906 33.6861 64.8312C33.6861 64.8312 36.4236 60.7953 38.8173 55.5969C44.0407 44.25 54.9361 39.1937 65.4392 39.1937C75.8548 39.1937 87.0079 44.5187 91.0611 53.725C92.4001 56.7656 92.7329 60.4 92.3704 64.4031C91.7782 70.9234 98.2126 81.5312 74.2111 89.5016C55.1657 95.825 31.7407 83.7 31.7407 83.7C25.3157 85.8 10.2907 86.7172 9.97355 82.2672C9.45012 74.9781 7.13605 71.2672 6.44387 65.7859Z" fill="#DFDFDF"/>
<path d="M53.5078 83.7034C57.6906 85.2377 62.2359 85.6549 66.6203 85.1331C71.0078 84.6018 75.3015 83.169 79.0421 80.7534C80.8984 79.5378 82.625 78.0753 84.014 76.3206C85.3718 74.5596 86.4718 72.5253 86.7265 70.3674C84.0265 73.6706 80.5921 75.4893 77.0531 76.9346C73.4953 78.3409 69.7531 79.2174 65.9812 79.669C62.2062 80.1049 58.3953 80.1096 54.6203 79.5237C50.6818 78.9106 46.8852 77.5961 43.4109 75.6424C45.5421 79.3956 49.3546 82.1721 53.5078 83.7034ZM39.9468 10.7034C40.6093 6.40807 36.3031 7.82213 36.1531 9.65338C37.3281 9.119 39.0859 8.94869 39.9468 10.7034ZM35.689 13.0784C36.3531 8.7815 32.0484 10.1924 31.8984 12.0299C33.0734 11.4909 34.8296 11.3221 35.689 13.0784ZM30.7718 15.5581C31.4359 11.2628 27.1312 12.6753 26.9812 14.5096C28.1578 13.9706 29.9109 13.8034 30.7718 15.5581Z" fill="#DFDFDF"/>
</svg>
