<svg width="100" height="100" viewBox="0 0 100 100" fill="none" xmlns="http://www.w3.org/2000/svg">
<g clip-path="url(#clip0_155_351)">
<path d="M21.5083 50.9715C21.175 53.0215 22.5667 54.9854 24.4639 56.2021C26.4472 57.4715 29.2722 58.166 32.6028 57.6743C34.0896 57.4724 35.5162 56.9554 36.7871 56.1578C38.058 55.3602 39.1439 54.3004 39.9722 53.0493C41.375 50.9271 41.95 48.3465 41.3056 46.4326C41.2311 46.2116 41.1021 46.0128 40.9305 45.8548C40.7589 45.6967 40.5503 45.5844 40.3239 45.5282C40.0975 45.472 39.8606 45.4738 39.635 45.5333C39.4095 45.5928 39.2025 45.7082 39.0333 45.8687C34.0472 50.6021 28.4139 51.766 23.3611 49.891C23.1686 49.8198 22.9627 49.7923 22.7583 49.8102C22.5538 49.8282 22.3559 49.8912 22.1787 49.9948C22.0015 50.0984 21.8495 50.24 21.7336 50.4093C21.6177 50.5787 21.5408 50.7689 21.5083 50.9715ZM77.275 50.9715C77.6056 53.0215 76.2139 54.9854 74.3167 56.2021C72.3333 57.4715 69.5083 58.166 66.1778 57.6743C64.691 57.4722 63.2645 56.9551 61.9936 56.1576C60.7228 55.36 59.6368 54.3003 58.8083 53.0493C57.4056 50.9271 56.8306 48.3465 57.475 46.4326C57.5495 46.2116 57.6785 46.0128 57.85 45.8548C58.0216 45.6967 58.2302 45.5844 58.4566 45.5282C58.683 45.472 58.92 45.4738 59.1455 45.5333C59.3711 45.5928 59.578 45.7082 59.7472 45.8687C64.7361 50.6021 70.3694 51.766 75.4194 49.891C75.612 49.8198 75.8178 49.7923 76.0223 49.8102C76.2267 49.8282 76.4247 49.8912 76.6018 49.9948C76.779 50.0984 76.931 50.24 77.0469 50.4093C77.1628 50.5787 77.2398 50.7716 77.2722 50.9743L77.275 50.9715ZM69.6861 73.4271C69.2222 74.5215 68.4667 75.5743 67.5417 76.5382C63.95 80.2771 57.6583 83.3326 50.0361 83.3326C42.4333 83.3326 36.0444 80.2882 32.5083 76.5132C31.6432 75.6183 30.936 74.5833 30.4167 73.4521C29.9722 72.4354 29.6639 71.141 29.9972 69.8243C30.375 68.3243 31.4833 67.2493 32.9194 66.8187C34.1778 66.441 35.5306 66.591 36.775 66.941C43.3111 68.6465 46.4972 69.4076 49.6583 69.4215C52.8111 69.4354 56.0694 68.7049 62.725 66.9382L62.7639 66.9271C64.1333 66.5854 65.5333 66.4604 66.8028 66.7882C68.1805 67.1493 69.4306 68.0715 69.9556 69.6104C70.4278 70.9937 70.1333 72.3715 69.6861 73.4271Z" fill="#DFDFDF"/>
<path fill-rule="evenodd" clip-rule="evenodd" d="M50 100C77.6139 100 100 77.6139 100 50C100 22.3861 77.6139 0 50 0C22.3861 0 0 22.3861 0 50C0 77.6139 22.3861 100 50 100ZM50 94.4444C74.5472 94.4444 94.4444 74.5472 94.4444 50C94.4444 25.4528 74.5472 5.55556 50 5.55556C25.4528 5.55556 5.55556 25.4528 5.55556 50C5.55556 74.5472 25.4528 94.4444 50 94.4444Z" fill="#DFDFDF"/>
</g>
<defs>
<clipPath id="clip0_155_351">
<rect width="100" height="100" fill="white"/>
</clipPath>
</defs>
</svg>
