<svg width="38" height="38" viewBox="0 0 38 38" fill="none" xmlns="http://www.w3.org/2000/svg">
<path d="M14.9167 31.5C10.8889 31.5 7.45143 30.0764 4.60421 27.2292C1.75699 24.3819 0.333374 20.9444 0.333374 16.9167V4.41667C0.333374 3.27083 0.741707 2.28958 1.55837 1.47292C2.37365 0.657639 3.35421 0.25 4.50004 0.25H30.5417C32.5556 0.25 34.2743 0.961806 35.698 2.38542C37.1216 3.80903 37.8334 5.52778 37.8334 7.54167C37.8334 9.55556 37.1216 11.2743 35.698 12.6979C34.2743 14.1215 32.5556 14.8333 30.5417 14.8333H29.5V16.9167C29.5 20.9444 28.0764 24.3819 25.2292 27.2292C22.382 30.0764 18.9445 31.5 14.9167 31.5ZM4.50004 10.6667H25.3334V4.41667H4.50004V10.6667ZM29.5 10.6667H30.5417C31.4098 10.6667 32.1473 10.3625 32.7542 9.75417C33.3625 9.14722 33.6667 8.40972 33.6667 7.54167C33.6667 6.67361 33.3625 5.93611 32.7542 5.32917C32.1473 4.72083 31.4098 4.41667 30.5417 4.41667H29.5V10.6667ZM0.333374 37.75V33.5833H33.6667V37.75H0.333374Z" fill="#DFDFDF"/>
</svg>
