<svg width="39" height="39" viewBox="0 0 39 39" fill="none" xmlns="http://www.w3.org/2000/svg">
<path d="M39 4.875C39 3.58207 38.4864 2.34209 37.5721 1.42786C36.6579 0.513615 35.4179 0 34.125 0H4.875C3.58207 0 2.34209 0.513615 1.42786 1.42786C0.513615 2.34209 0 3.58207 0 4.875V34.125C0 35.4179 0.513615 36.6579 1.42786 37.5721C2.34209 38.4864 3.58207 39 4.875 39H34.125C35.4179 39 36.6579 38.4864 37.5721 37.5721C38.4864 36.6579 39 35.4179 39 34.125V4.875ZM28.0312 20.7188L13.9108 20.7187L19.1441 25.9496C19.373 26.1785 19.5015 26.4889 19.5015 26.8125C19.5015 27.1361 19.373 27.4465 19.1441 27.6754C18.9153 27.9042 18.6049 28.0328 18.2812 28.0328C17.9576 28.0328 17.6472 27.9042 17.4184 27.6754L10.1059 20.3629C9.99238 20.2497 9.90233 20.1152 9.84089 19.9671C9.77945 19.819 9.74782 19.6603 9.74782 19.5C9.74782 19.3397 9.77945 19.181 9.84089 19.0329C9.90233 18.8848 9.99238 18.7503 10.1059 18.6371L17.4184 11.3246C17.6472 11.0958 17.9576 10.9672 18.2813 10.9672C18.6049 10.9672 18.9153 11.0958 19.1441 11.3246C19.373 11.5535 19.5015 11.8639 19.5015 12.1875C19.5015 12.5111 19.373 12.8215 19.1441 13.0504L13.9108 18.2812L28.0312 18.2812C28.3545 18.2812 28.6645 18.4097 28.893 18.6382C29.1216 18.8668 29.25 19.1768 29.25 19.5C29.25 19.8232 29.1216 20.1332 28.893 20.3618C28.6645 20.5903 28.3545 20.7188 28.0312 20.7188Z" fill="#CCB260"/>
</svg>
