<svg width="100" height="100" viewBox="0 0 100 100" fill="none" xmlns="http://www.w3.org/2000/svg">
<g clip-path="url(#clip0_155_355)">
<path d="M50 80C70 80 75 60 75 60H25C25 60 30 80 50 80Z" fill="#DFDFDF"/>
<path d="M50 100C77.57 100 100 77.57 100 50C100 22.43 77.57 0 50 0C22.43 0 0 22.43 0 50C0 77.57 22.43 100 50 100ZM50 10C72.055 10 90 27.945 90 50C90 72.055 72.055 90 50 90C27.945 90 10 72.055 10 50C10 27.945 27.945 10 50 10Z" fill="#DFDFDF"/>
<path d="M32.6521 53L42.8854 42.6615C43.5814 41.9696 44.1318 41.1468 44.5047 40.2412C44.8775 39.3355 45.0652 38.3651 45.0568 37.3866C45.0484 36.4081 44.8442 35.441 44.4559 34.5418C44.0677 33.6426 43.5033 32.8292 42.7955 32.1492C41.4321 30.8023 39.5973 30.0325 37.6756 30.001C35.754 29.9695 33.8946 30.6789 32.4874 31.9804C31.0591 30.6956 29.1847 30.0126 27.2597 30.0756C25.3346 30.1385 23.5095 30.9425 22.1692 32.3179C19.244 35.2959 19.2789 39.9118 22.2641 42.8252L32.6521 53ZM67.595 53L77.8283 42.6615C78.5243 41.9696 79.0748 41.1468 79.4476 40.2412C79.8204 39.3355 80.0081 38.3651 79.9997 37.3866C79.9914 36.4081 79.7871 35.441 79.3989 34.5418C79.0106 33.6426 78.4462 32.8292 77.7385 32.1492C76.3751 30.8023 74.5402 30.0325 72.6186 30.001C70.6969 29.9695 68.8375 30.6789 67.4303 31.9804C66.0024 30.6935 64.1273 30.0087 62.2011 30.0707C60.2748 30.1328 58.4483 30.9368 57.1072 32.313C54.1819 35.291 54.2169 39.9068 57.202 42.8203L67.595 53Z" fill="#DFDFDF"/>
</g>
<defs>
<clipPath id="clip0_155_355">
<rect width="100" height="100" fill="white"/>
</clipPath>
</defs>
</svg>
