<svg width="63" height="50" viewBox="0 0 63 50" fill="none" xmlns="http://www.w3.org/2000/svg">
<path d="M56.25 0H12.5C9.05313 0 6.25 2.80313 6.25 6.25V21.875H12.5V12.5L32.5 27.5C33.0411 27.9052 33.699 28.1242 34.375 28.1242C35.051 28.1242 35.7089 27.9052 36.25 27.5L56.25 12.5V40.625H31.25V46.875H56.25C59.6969 46.875 62.5 44.0719 62.5 40.625V6.25C62.5 2.80313 59.6969 0 56.25 0ZM34.375 21.0938L14.5813 6.25H54.1688L34.375 21.0938Z" fill="#DFDFDF"/>
<path d="M0 25H21.875V31.25H0V25ZM6.25 34.375H25V40.625H6.25V34.375ZM15.625 43.75H28.125V50H15.625V43.75Z" fill="#DFDFDF"/>
</svg>
