<svg width="50" height="50" viewBox="0 0 50 50" fill="none" xmlns="http://www.w3.org/2000/svg">
<path d="M43.2422 35.334C42.3829 32.8828 40.3799 31.6406 38.4463 30.4395C36.7637 29.3936 35.1749 28.4053 34.1358 26.6309C31.2715 21.7158 29.6983 18.75 25.0059 18.75C20.3135 18.75 18.7354 21.7168 15.8643 26.6299C14.8243 28.4082 13.2276 29.3984 11.543 30.4463C9.60943 31.6484 7.61041 32.8877 6.7481 35.334C6.41249 36.2161 6.24361 37.1529 6.25006 38.0967C6.25006 42.0752 9.419 45.3125 12.9297 45.3125C16.4405 45.3125 21.0655 43.542 25.0157 43.542C28.9659 43.542 33.5264 45.3125 37.0811 45.3125C40.6358 45.3125 43.7501 42.0752 43.7501 38.0967C43.7528 37.1523 43.5807 36.2156 43.2422 35.334Z" fill="#DFDFDF"/>
<path d="M7.03125 28.125C10.0516 28.125 12.5 24.977 12.5 21.0938C12.5 17.2105 10.0516 14.0625 7.03125 14.0625C4.01094 14.0625 1.5625 17.2105 1.5625 21.0938C1.5625 24.977 4.01094 28.125 7.03125 28.125Z" fill="#DFDFDF"/>
<path d="M17.9688 18.75C20.9891 18.75 23.4375 15.602 23.4375 11.7188C23.4375 7.8355 20.9891 4.6875 17.9688 4.6875C14.9484 4.6875 12.5 7.8355 12.5 11.7188C12.5 15.602 14.9484 18.75 17.9688 18.75Z" fill="#DFDFDF"/>
<path d="M32.0312 18.75C35.0516 18.75 37.5 15.602 37.5 11.7188C37.5 7.8355 35.0516 4.6875 32.0312 4.6875C29.0109 4.6875 26.5625 7.8355 26.5625 11.7188C26.5625 15.602 29.0109 18.75 32.0312 18.75Z" fill="#DFDFDF"/>
<path d="M42.9688 28.125C45.9891 28.125 48.4375 24.977 48.4375 21.0938C48.4375 17.2105 45.9891 14.0625 42.9688 14.0625C39.9484 14.0625 37.5 17.2105 37.5 21.0938C37.5 24.977 39.9484 28.125 42.9688 28.125Z" fill="#DFDFDF"/>
</svg>
