<svg width="46" height="34" viewBox="0 0 46 34" fill="none" xmlns="http://www.w3.org/2000/svg">
<path d="M4.25004 33.6666C3.10421 33.6666 2.12365 33.2589 1.30837 32.4437C0.491707 31.627 0.083374 30.6458 0.083374 29.4999V6.58325H4.25004V29.4999H39.6667V33.6666H4.25004ZM12.5834 25.3333C11.4375 25.3333 10.457 24.9249 9.64171 24.1082C8.82504 23.293 8.41671 22.3124 8.41671 21.1666V4.49992C8.41671 3.35409 8.82504 2.37353 9.64171 1.55825C10.457 0.741585 11.4375 0.333252 12.5834 0.333252H41.75C42.8959 0.333252 43.8771 0.741585 44.6938 1.55825C45.5091 2.37353 45.9167 3.35409 45.9167 4.49992V21.1666C45.9167 22.3124 45.5091 23.293 44.6938 24.1082C43.8771 24.9249 42.8959 25.3333 41.75 25.3333H12.5834ZM16.75 21.1666C16.75 20.0208 16.3417 19.0395 15.525 18.2228C14.7098 17.4076 13.7292 16.9999 12.5834 16.9999V21.1666H16.75ZM37.5834 21.1666H41.75V16.9999C40.6042 16.9999 39.623 17.4076 38.8063 18.2228C37.991 19.0395 37.5834 20.0208 37.5834 21.1666ZM27.1667 19.0833C28.9028 19.0833 30.3785 18.4756 31.5938 17.2603C32.8091 16.0451 33.4167 14.5694 33.4167 12.8333C33.4167 11.0971 32.8091 9.62145 31.5938 8.40617C30.3785 7.19089 28.9028 6.58325 27.1667 6.58325C25.4306 6.58325 23.9549 7.19089 22.7396 8.40617C21.5243 9.62145 20.9167 11.0971 20.9167 12.8333C20.9167 14.5694 21.5243 16.0451 22.7396 17.2603C23.9549 18.4756 25.4306 19.0833 27.1667 19.0833ZM12.5834 8.66658C13.7292 8.66658 14.7098 8.25825 15.525 7.44159C16.3417 6.62631 16.75 5.64575 16.75 4.49992H12.5834V8.66658ZM41.75 8.66658V4.49992H37.5834C37.5834 5.64575 37.991 6.62631 38.8063 7.44159C39.623 8.25825 40.6042 8.66658 41.75 8.66658Z" fill="#DFDFDF"/>
</svg>
