<svg width="50" height="50" viewBox="0 0 50 50" fill="none" xmlns="http://www.w3.org/2000/svg">
<path d="M36.4212 49.9999C37.0851 50.0037 37.7431 49.8753 38.3569 49.6221C38.9706 49.3689 39.5278 48.9959 39.9958 48.5251L46.7701 41.7508C47.2357 41.2824 47.497 40.6489 47.497 39.9885C47.497 39.3281 47.2357 38.6945 46.7701 38.2262L36.7712 28.2272C36.3028 27.7617 35.6693 27.5003 35.0089 27.5003C34.3485 27.5003 33.7149 27.7617 33.2465 28.2272L29.247 32.2018C26.4779 31.4635 23.9133 30.1043 21.7478 28.2272C19.8758 26.0582 18.5172 23.4949 17.7732 20.728L21.7478 16.7285C22.2133 16.2601 22.4747 15.6265 22.4747 14.9661C22.4747 14.3057 22.2133 13.6722 21.7478 13.2038L11.7488 3.2049C11.2805 2.73932 10.6469 2.47799 9.98652 2.47799C9.32613 2.47799 8.69256 2.73932 8.22421 3.2049L1.47493 10.0042C1.00406 10.4722 0.631129 11.0294 0.377909 11.6431C0.124689 12.2569 -0.00375148 12.9149 8.34079e-05 13.5788C0.226867 23.1835 4.06484 32.35 10.7489 39.2511C17.65 45.9352 26.8165 49.7731 36.4212 49.9999ZM9.99902 8.52933L16.4733 15.0036L13.2487 18.2283C12.9433 18.5144 12.7146 18.8726 12.5835 19.27C12.4525 19.6674 12.4234 20.0914 12.4988 20.5031C13.4331 24.6785 15.4112 28.5488 18.2481 31.7519C21.4487 34.5924 25.32 36.5711 29.4969 37.5012C29.9023 37.586 30.3224 37.5687 30.7195 37.4509C31.1166 37.3331 31.4781 37.1185 31.7717 36.8263L34.9964 33.5267L41.4707 40.001L36.4712 45.0004C28.1814 44.787 20.2717 41.4786 14.2986 35.7264C8.53146 29.7508 5.21355 21.8307 4.99955 13.5288L9.99902 8.52933ZM44.9953 22.5028H49.9948C50.0596 19.5307 49.522 16.5761 48.4143 13.8173C47.3066 11.0584 45.6519 8.55244 43.5497 6.45029C41.4476 4.34813 38.9416 2.69336 36.1827 1.5857C33.4239 0.478036 30.4693 -0.0595853 27.4972 0.00523602V5.0047C29.8167 4.92447 32.1279 5.3222 34.2872 6.17316C36.4464 7.02413 38.4076 8.31015 40.0487 9.95128C41.6898 11.5924 42.9759 13.5536 43.8268 15.7128C44.6778 17.8721 45.0755 20.1833 44.9953 22.5028Z" fill="#DFDFDF"/>
</svg>
