<svg width="40" height="42" viewBox="0 0 40 42" fill="none" xmlns="http://www.w3.org/2000/svg">
<path d="M4.33333 39.8333L12.6667 35.6666V29.4166H37.6667M18.9167 35.6666H37.6667M12.6667 23.1666L18.9167 19L21 10.6666C27.25 12.75 27.25 19 27.25 23.1666M2.25 29.4166C2.25 29.9692 2.46949 30.4991 2.86019 30.8898C3.25089 31.2805 3.7808 31.5 4.33333 31.5C4.88587 31.5 5.41577 31.2805 5.80647 30.8898C6.19717 30.4991 6.41667 29.9692 6.41667 29.4166C6.41667 28.8641 6.19717 28.3342 5.80647 27.9435C5.41577 27.5528 4.88587 27.3333 4.33333 27.3333C3.7808 27.3333 3.25089 27.5528 2.86019 27.9435C2.46949 28.3342 2.25 28.8641 2.25 29.4166ZM12.6667 4.41665C12.6667 4.96918 12.8862 5.49908 13.2769 5.88978C13.6676 6.28049 14.1975 6.49998 14.75 6.49998C15.3025 6.49998 15.8324 6.28049 16.2231 5.88978C16.6138 5.49908 16.8333 4.96918 16.8333 4.41665C16.8333 3.86411 16.6138 3.33421 16.2231 2.94351C15.8324 2.55281 15.3025 2.33331 14.75 2.33331C14.1975 2.33331 13.6676 2.55281 13.2769 2.94351C12.8862 3.33421 12.6667 3.86411 12.6667 4.41665Z" stroke="#DFDFDF" stroke-width="4.16667" stroke-linecap="round" stroke-linejoin="round"/>
</svg>
