<svg width="42" height="34" viewBox="0 0 42 34" fill="none" xmlns="http://www.w3.org/2000/svg">
<path d="M6.93746 0.333313C5.14172 0.333313 3.41953 1.04667 2.14976 2.31644C0.879979 3.58622 0.166626 5.30841 0.166626 7.10415V26.8958C0.166626 28.6915 0.879979 30.4137 2.14976 31.6835C3.41953 32.9533 5.14172 33.6666 6.93746 33.6666H35.0625C35.9516 33.6666 36.8321 33.4915 37.6535 33.1512C38.475 32.811 39.2214 32.3122 39.8502 31.6835C40.4789 31.0548 40.9776 30.3084 41.3179 29.4869C41.6582 28.6654 41.8333 27.785 41.8333 26.8958V7.10415C41.8333 6.21499 41.6582 5.33454 41.3179 4.51306C40.9776 3.69159 40.4789 2.94517 39.8502 2.31644C39.2214 1.68771 38.475 1.18898 37.6535 0.848712C36.8321 0.508446 35.9516 0.333313 35.0625 0.333313H6.93746ZM13.7083 10.2291V23.7708C13.7083 24.1852 13.5437 24.5826 13.2506 24.8757C12.9576 25.1687 12.5602 25.3333 12.1458 25.3333C11.7314 25.3333 11.334 25.1687 11.0409 24.8757C10.7479 24.5826 10.5833 24.1852 10.5833 23.7708V13.1479L9.88746 13.6125C9.7168 13.729 9.52472 13.8105 9.32235 13.8523C9.11998 13.894 8.91134 13.8952 8.7085 13.8558C8.50565 13.8164 8.31264 13.7372 8.14063 13.6227C7.96863 13.5081 7.82104 13.3607 7.70642 13.1887C7.5918 13.0168 7.51242 12.8238 7.47288 12.621C7.43333 12.4182 7.43441 12.2096 7.47605 12.0072C7.51769 11.8048 7.59906 11.6126 7.71545 11.4419C7.83184 11.2712 7.98094 11.1252 8.15413 11.0125L11.2791 8.92915C11.5144 8.77229 11.7879 8.68223 12.0704 8.66858C12.3528 8.65493 12.6337 8.71819 12.883 8.85163C13.1324 8.98507 13.3408 9.18367 13.4862 9.42627C13.6315 9.66886 13.7083 9.94635 13.7083 10.2291ZM32.4583 10.2291V23.7708C32.4583 24.1852 32.2937 24.5826 32.0006 24.8757C31.7076 25.1687 31.3102 25.3333 30.8958 25.3333C30.4814 25.3333 30.084 25.1687 29.7909 24.8757C29.4979 24.5826 29.3333 24.1852 29.3333 23.7708V13.1479L28.6375 13.6125C28.4668 13.729 28.2747 13.8105 28.0724 13.8523C27.87 13.894 27.6613 13.8952 27.4585 13.8558C27.2556 13.8164 27.0626 13.7372 26.8906 13.6227C26.7186 13.5081 26.571 13.3607 26.4564 13.1887C26.3418 13.0168 26.2624 12.8238 26.2229 12.621C26.1833 12.4182 26.1844 12.2096 26.226 12.0072C26.2677 11.8048 26.3491 11.6126 26.4654 11.4419C26.5818 11.2712 26.7309 11.1252 26.9041 11.0125L30.0291 8.92915C30.2644 8.77229 30.5379 8.68223 30.8204 8.66858C31.1028 8.65493 31.3837 8.71819 31.633 8.85163C31.8824 8.98507 32.0908 9.18367 32.2362 9.42627C32.3815 9.66886 32.4583 9.94635 32.4583 10.2291ZM23.0833 21.1666C23.0833 21.7192 22.8638 22.2491 22.4731 22.6398C22.0824 23.0305 21.5525 23.25 21 23.25C20.4474 23.25 19.9175 23.0305 19.5268 22.6398C19.1361 22.2491 18.9166 21.7192 18.9166 21.1666C18.9166 20.6141 19.1361 20.0842 19.5268 19.6935C19.9175 19.3028 20.4474 19.0833 21 19.0833C21.5525 19.0833 22.0824 19.3028 22.4731 19.6935C22.8638 20.0842 23.0833 20.6141 23.0833 21.1666ZM21 14.9166C20.4474 14.9166 19.9175 14.6972 19.5268 14.3065C19.1361 13.9158 18.9166 13.3858 18.9166 12.8333C18.9166 12.2808 19.1361 11.7509 19.5268 11.3602C19.9175 10.9695 20.4474 10.75 21 10.75C21.5525 10.75 22.0824 10.9695 22.4731 11.3602C22.8638 11.7509 23.0833 12.2808 23.0833 12.8333C23.0833 13.3858 22.8638 13.9158 22.4731 14.3065C22.0824 14.6972 21.5525 14.9166 21 14.9166Z" fill="#DFDFDF"/>
</svg>
